<svg xmlns="http://www.w3.org/2000/svg" width="14" height="16"><path fill="#555" d="M9.358.664A.67.67 0 0 0 8.694 0H4.468a.67.67 0 0 0-.664.664.67.67 0 0 0 .664.664h4.226a.67.67 0 0 0 .664-.664zM7.85 12.196c.302 0 .543-.18.543-.483l.302-5.856c0-.302-.18-.544-.483-.544-.241 0-.543.181-.543.483l-.302 5.857c-.06.302.181.543.483.543zm-2.355 0s.06 0 0 0c.302 0 .544-.241.544-.483l-.302-5.856c0-.302-.302-.483-.544-.483-.301 0-.543.241-.483.483l.302 5.856c0 .302.242.483.483.483zm4.408 1.812c-.06.422-.302.724-.543.724H3.561c-.18 0-.483-.302-.483-.724L2.657 3.985h7.668l-.423 10.023zM.664 2.657A.67.67 0 0 0 0 3.32a.67.67 0 0 0 .664.664h.785l.362 9.962C1.871 15.094 2.717 16 3.683 16h5.736c1.026 0 1.811-.906 1.872-2.053l.422-9.962h.785a.67.67 0 0 0 .664-.664.67.67 0 0 0-.664-.664z"/></svg>