<?xml version="1.0" encoding="UTF-8"?>
<svg id="SVGDoc" width="22" height="23" xmlns="http://www.w3.org/2000/svg" version="1.1" xmlns:xlink="http://www.w3.org/1999/xlink" xmlns:avocode="https://avocode.com/" viewBox="0 0 22 23"><defs></defs><desc>Generated with Avocode.</desc><g><g><title>share</title><path d="M18.02539,16.48047c0.3956,0 0.7822,0.1173 1.1111,0.3371c0.3289,0.2197 0.5853,0.5321 0.7367,0.8975c0.1513,0.3655 0.1909,0.7676 0.1138,1.1556c-0.0772,0.3879 -0.2677,0.7443 -0.5474,1.024c-0.2797,0.2797 -0.6361,0.4702 -1.024,0.5474c-0.388,0.0771 -0.7901,0.0375 -1.1556,-0.1138c-0.3654,-0.1514 -0.6778,-0.4078 -0.8975,-0.7367c-0.2198,-0.3289 -0.3371,-0.7155 -0.3371,-1.1111c0,-0.5304 0.2107,-1.0391 0.5858,-1.4142c0.3751,-0.3751 0.8838,-0.5858 1.4142,-0.5858zM4.02539,13.48047c-0.39556,0 -0.78224,-0.1173 -1.11114,-0.3371c-0.3289,-0.2197 -0.58524,-0.5321 -0.73662,-0.8975c-0.15138,-0.3655 -0.19098,-0.7676 -0.11381,-1.1556c0.07717,-0.3879 0.26765,-0.7443 0.54736,-1.024c0.2797,-0.2797 0.63607,-0.4702 1.02403,-0.5474c0.38796,-0.07714 0.79009,-0.0375 1.15555,0.1138c0.36545,0.1514 0.67781,0.4078 0.89757,0.7367c0.21976,0.3289 0.33706,0.7155 0.33706,1.1111c0,0.5304 -0.21071,1.0391 -0.58579,1.4142c-0.37507,0.3751 -0.88378,0.5858 -1.41421,0.5858zM18.02539,2.48047c0.3956,0 0.7822,0.1173 1.1111,0.33706c0.3289,0.21977 0.5853,0.53212 0.7367,0.89757c0.1513,0.36546 0.1909,0.76759 0.1138,1.15555c-0.0772,0.38796 -0.2677,0.74433 -0.5474,1.02404c-0.2797,0.2797 -0.6361,0.47018 -1.024,0.54735c-0.388,0.07717 -0.7901,0.03757 -1.1556,-0.11381c-0.3654,-0.15137 -0.6778,-0.40772 -0.8975,-0.73662c-0.2198,-0.3289 -0.3371,-0.71558 -0.3371,-1.11114c0,-0.53043 0.2107,-1.03914 0.5858,-1.41421c0.3751,-0.37507 0.8838,-0.58579 1.4142,-0.58579zM18.02539,8.48047c0.7911,0 1.5645,-0.23459 2.2223,-0.67412c0.6578,-0.43953 1.1705,-1.06424 1.4732,-1.79514c0.3028,-0.73091 0.382,-1.53518 0.2276,-2.3111c-0.1543,-0.77592 -0.5353,-1.48866 -1.0947,-2.04807c-0.5594,-0.55941 -1.2721,-0.94037 -2.048,-1.09471c-0.776,-0.15434 -1.5802,-0.07513 -2.3111,0.22762c-0.7309,0.30275 -1.3557,0.81544 -1.7952,1.47324c-0.4395,0.6578 -0.6741,1.43116 -0.6741,2.22228c0.0053,0.37724 0.0649,0.75175 0.177,1.112l-7.116,3.344c-0.524,-0.63579 -1.23153,-1.09426 -2.02592,-1.31276c-0.79439,-0.2185 -1.63687,-0.18638 -2.41231,0.09199c-0.77544,0.27837 -1.44601,0.78939 -1.92006,1.46324c-0.47406,0.67383 -0.72847,1.47763 -0.72847,2.30153c0,0.8239 0.25441,1.6277 0.72847,2.3015c0.47405,0.6739 1.14462,1.1849 1.92006,1.4633c0.77544,0.2783 1.61792,0.3105 2.41231,0.092c0.79439,-0.2185 1.50192,-0.677 2.02592,-1.3128l7.116,3.344c-0.1121,0.3603 -0.1717,0.7348 -0.177,1.112c-0.0023,0.927 0.3167,1.8261 0.9026,2.5444c0.5859,0.7184 1.4026,1.2115 2.3111,1.3956c0.9085,0.1841 1.8527,0.0477 2.672,-0.3859c0.8193,-0.4336 1.4631,-1.1377 1.8219,-1.9924c0.3587,-0.8548 0.4102,-1.8074 0.1457,-2.6959c-0.2644,-0.8884 -0.8285,-1.6578 -1.5963,-2.1772c-0.7678,-0.5195 -1.6918,-0.7569 -2.6149,-0.6718c-0.923,0.085 -1.7881,0.4872 -2.4481,1.1382l-7.269,-3.415c0.10001,-0.4879 0.10001,-0.9911 0,-1.479l7.269,-3.416c0.7467,0.73961 1.755,1.15468 2.806,1.155z" fill="#b9b9b9" fill-opacity="1"></path></g></g></svg>