<svg xmlns="http://www.w3.org/2000/svg" width="24" height="23" viewBox="0 0 24 23"><g><g><g><path fill="#858585" d="M16.348 11.489c0 2.456-2.056 4.447-4.59 4.447-2.536 0-4.591-1.99-4.591-4.447s2.055-4.448 4.59-4.448c2.535 0 4.59 1.991 4.59 4.448zm4.232-1.713v9.655c0 .5-.408.908-.908.908H3.756a.911.911 0 0 1-.908-.908V9.776h2.099a6.673 6.673 0 0 0-.293 1.96c0 3.802 3.18 6.884 7.103 6.884 3.924 0 7.105-3.082 7.105-6.883 0-.681-.103-1.34-.294-1.96zM19.54 2.65c.566 0 1.03.463 1.03 1.03v2.462c0 .566-.464 1.029-1.03 1.029h-2.583a1.032 1.032 0 0 1-1.029-1.029V3.679c0-.566.463-1.029 1.029-1.029zM.308 3.044v16.989c0 1.739 1.32 2.933 2.934 2.933H20.23c1.613 0 2.933-1.194 2.933-2.933V3.044c0-1.739-1.32-2.933-2.933-2.933H3.242C1.628.11.308 1.305.308 3.044z"/></g></g></g></svg>