<svg xmlns="http://www.w3.org/2000/svg" width="18" height="20" viewBox="0 0 18 20"><g><g><g><g><path fill="#555" d="M6.613 15.9a.813.813 0 0 0 .81-.811V.814a.817.817 0 0 0-.445-.73.81.81 0 0 0-.852.082L.827 4.14a.803.803 0 0 0-.162 1.135c.27.365.77.433 1.135.162l4.002-3v12.652c0 .446.365.811.81.811z"/></g><g><path fill="#555" d="M11.884 4.14a.813.813 0 0 0-.81.81v14.14c0 .311.175.581.446.73a.893.893 0 0 0 .364.081.81.81 0 0 0 .487-.162l5.3-3.907a.818.818 0 0 0 .175-1.135.818.818 0 0 0-1.136-.176l-4.014 2.96V4.952a.813.813 0 0 0-.812-.811z"/></g></g></g></g></svg>