<svg xmlns="http://www.w3.org/2000/svg" width="27" height="22" viewBox="0 0 27 22"><g><g><path fill="#858585" d="M26.725 2.786c-.98.434-2.036.728-3.142.861A5.485 5.485 0 0 0 25.988.622a10.93 10.93 0 0 1-3.474 1.326A5.46 5.46 0 0 0 18.522.222a5.47 5.47 0 0 0-5.327 6.715A15.526 15.526 0 0 1 1.923 1.223a5.429 5.429 0 0 0-.74 2.75c0 1.896.966 3.57 2.432 4.55a5.424 5.424 0 0 1-2.476-.684v.07a5.47 5.47 0 0 0 4.386 5.36 5.46 5.46 0 0 1-2.47.094 5.478 5.478 0 0 0 5.11 3.798 10.988 10.988 0 0 1-6.794 2.34c-.44 0-.877-.025-1.305-.076a15.477 15.477 0 0 0 8.384 2.457c10.06 0 15.562-8.332 15.562-15.558 0-.238-.007-.472-.016-.707a11.116 11.116 0 0 0 2.729-2.83v-.001z"/></g></g></svg>