<svg xmlns="http://www.w3.org/2000/svg" width="20" height="20" viewBox="0 0 20 20"><g><g><path fill="#555" d="M18.994 16.756a.875.875 0 0 1-.619 1.494h-1.75v.875a.875.875 0 0 1-1.75 0v-3.5a.875.875 0 0 1 1.75 0v.875h1.75c.232 0 .455.092.619.256zM.256 17.994A.875.875 0 0 1 .875 16.5H12.25a.875.875 0 0 1 0 1.75H.875a.875.875 0 0 1-.619-.256zm18.738-8.238a.875.875 0 0 1-.619 1.494H10.5v.875a.875.875 0 0 1-1.75 0v-3.5a.875.875 0 0 1 1.75 0V9.5h7.875c.232 0 .455.092.619.256zM.256 10.994A.875.875 0 0 1 .875 9.5h5.25a.875.875 0 0 1 0 1.75H.875a.875.875 0 0 1-.619-.256zm18.738-8.238a.875.875 0 0 1-.619 1.494H14v.875a.875.875 0 0 1-1.75 0v-3.5a.875.875 0 0 1 1.75 0V2.5h4.375c.232 0 .455.092.619.256zM0 3.375A.875.875 0 0 1 .875 2.5h8.75a.875.875 0 1 1 0 1.75H.875A.875.875 0 0 1 0 3.375z"/></g></g></svg>